<svg width="1333.333" height="1066.667" xmlns="http://www.w3.org/2000/svg">
    <path d="M7017.33 3429.68c-10.44-13.52-20.3-25.92-29.59-37.61-33.79-42.51-60.52-77.53-81.86-118.35-22.92-34.24-50.57-53.6-84.53-59-77.63-12.28-174.49 48.97-205.17 73.54-34.42 27.75-85.95 7.09-91.65-36.76v-.07c-1.74-13.36-45.75-327.37-326.87-356.96-199.66-20.93-284.07 80.71-316.22 141.38-11.98 22.62-36.95 36.16-62.07 31.26-37.91-7.38-57.1-48.81-39.59-82.56 49.32-95.07 161.94-206.01 365.89-206.01 20.35 0 41.63 1.11 63.83 3.44 245.59 25.85 364.95 222.14 409.03 370.59 56.49-30.63 138.41-62.46 220.05-49.63l.15.02c7.36 1.16 13.74-5.14 12.6-12.5-5.36-34.55-9.92-73.96-13.82-119.82-18.54-217.84-292.94-295.89-319.86-303.02-159.54-23.62-252.55 25.69-294.56 58.21-17.62 13.64-42.19 13.57-59.77-.12l-11.94-9.3c-25.18-19.13-26-57.08-1.22-76.72 49.53-39.28 142.47-91.44 286.78-91.44h.45c27.85.01 51.07-21.08 53.95-48.78 10.15-97.5 3.27-226.76-74.22-290.42-116.94-96.04-422.04-74-529.72-57.42l-25.49 3.95-42.85 14.14c-14.14 59.15-42.76 125.55-98.23 186.6 26.55 9.83 53.85 24.23 78.85 45.25 28.17 23.68 25.47 67.91-5.32 88.08l-2.9 1.9c-20.52 13.43-47 11.12-66.03-4.34-54.05-43.93-131.11-38.02-131.75-37.96h-.01c-59.53 5.76-86.1-72.77-35.3-104.33 1.57-.98 3.11-1.95 4.65-2.93 208.59-133.5 68.02-460.3-171.46-397.19-18.45 4.87-36.94 11.93-55.45 21.43-154.91 79.56-153.68 123.17-151.22 210.04.43 15.12.87 30.73.67 47.76-.24 19.99 6.25 28.98 11.92 34.57 7.91 7.78 21.84 13.17 35.99 16.86 28.61 7.46 50.21 30.96 55.81 59.99l.6 3.14c5.74 29.75-6.84 59.65-31.33 77.48-34.7 25.25-77.7 72.86-73.08 152.03l.09 1.44c2.51 40.26 44.33 65.76 81.51 50.12 58.78-24.71 136.6-45.32 232.71-45.31 15.93 0 32.42.57 49.36 1.78 195.53 13.96 266.01 171.76 281.85 292.1 4.12 31.31-17.39 61.38-48.72 65.4-31.66 4.07-59.95-18.04-63.94-48.55-2.93-22.36-8.56-50.2-19.38-77.86-28.97-74.07-80.61-112.75-157.87-118.27-1.08-.08-2.15-.15-3.22-.22-142.25-9.35-268.46 91.12-293.58 231.44-28.15 157.2-30.84 347.28 27.5 474.57 72.18 157.46 278.37 118.95 302.03 113.95 91.84-29 155.77-76.83 189.95-142.24 32.8-62.74 32.86-130.9 27.5-175.94-3.3-27.75 12.04-53.95 36.99-65.29 36.13-7.18 71.63 18.05 75.81 55.75 6.79 61.12 5.1 150.63-39.38 236.58-48.44 93.63-134.95 160.57-257.05 199.07-56.22 20.49-166.45 71.01-261.9 141.46-73.98 54.6-48.26 173.67 42.22 190.04 5.86 1.06 11.96 1.84 18.3 2.32 41.73 3.16 80.11 11.01 117.25 18.55 128.31 26.22 192.76 39.3 257.97-149.8 13.52-38.85 62.63-50.8 92.49-22.51l.08.08c.8.76 81.66 76.21 182.98 68.6 68.05-5.1 133.09-46.82 193.34-123.99 18.81-24.1 37.86-44.68 57.09-61.78.59-1.94 1.06-3.9 1.87-5.8 20.99-49.25 46.3-133.27 18.9-210.14-24.5-68.74-88.57-121.56-190.43-156.99-15.12-5.25-29.95-9.75-44.53-13.56-24.03-6.29-41.21-27.22-42.37-52.04l-.06-1.28c-1.84-37.34 33.36-65.97 69.54-56.55a713.439 713.439 0 0 1 54.58 16.59c136.22 47.38 223.73 123.65 260.12 226.7 23.49 66.51 21.27 133.6 9.74 191.05 12.37-.4 24.79.4 37.24 2.73.42.08.85.16 1.26.24 126.23 24.55 204 188.33 239.11 283.72 10.82 29.39-2.95 63.21-32.24 74.3-29.8 11.3-62.45-3.99-73.25-33.3-33.52-90.97-93.03-201.59-155.21-213.69-.13-.02-.25-.04-.37-.06-43.1-8.07-90.02 38.72-121.83 79.46-81.09 103.88-173.79 160.16-275.52 167.29-83.97 5.87-155.65-23.89-203.78-52.46-98.42 207.21-241.92 177.92-359.31 154.04-33.7-6.89-68.57-13.98-103.2-16.61-102.37-7.73-169.08-63.5-209.7-125.15-1.92 4.73-3.73 9.47-5.31 14.26-62.4 188.36 90.4 302.87 96.71 307.49l14.16 10.14 6 16.36c1.74 4.74 25.5 72.18 15 176.13-9.77 96.75 101.08 160.64 178.93 102.38.59-.44 1.17-.88 1.75-1.32 82.07-62.44 117.39-161.16 131.97-221.54 6.4-26.54 33.7-48.27 60.99-48.27 34.24 2.88 58.2 35.35 50.5 68.84-17.62 76.53-62.58 205-174.1 290.33-91.57 70.06-207.7 96.36-345.51 78.62-.95 1.54-1.81 3.05-2.77 4.59-52.43 83.62-50.08 167.76-30.79 236.04 27.97 98.97 143.3 142.48 228.5 84.87 29.49-19.93 57.95-48.81 82.67-90.01l5.85-9.76c89.59-149.41 166.96-278.44 299.45-309.56 18.84-4.42 38.24-6.64 58.27-6.64 68.14 0 143.53 25.7 228.42 77.69 27.2 16.66 15.16 58.67-16.74 58.67-15.95 24.92-48.45 33.26-74.49 19.2-68.19-36.81-123.98-49.51-169.6-38.8-85.93 20.18-151.9 130.21-228.3 257.6l-5.87 9.79c-62.85 104.76-147.67 155.14-229.7 174.9-96.22 23.19-141.32 133.93-92.37 219.96 8.96 15.75 18.94 32.35 29.7 50l11.46 18.85c75.4 124.75 47.33 179.84-8.6 289.6-9.79 19.2-20.88 40.97-32.88 65.85-5.86 12.16-9.46 23.85-11.42 35.1 34.99-7.74 86.83-26.11 128.7-69.69 52.66-54.82 78.22-136.92 75.96-244.01-2.55-120.53 52.02-222.4 149.69-279.48 53.68-31.37 117.01-46.99 181.16-46.99 68.16 0 137.25 17.64 196.62 52.76 99.97 59.12 162.07 159.89 176.06 282.3 3.64 31.89-18.04 62.01-49.97 65.25-31.76 3.23-58.87-19.89-62.15-50.62-9.45-88.39-51.59-158.22-121.52-199.58-81-47.9-186.75-50.11-263.12-5.46-43.92 25.67-95.83 77.64-93.68 179.43 2.93 139.15-33.72 248.92-108.94 326.26-56.69 58.3-123.72 85.25-173.72 97.74 24.71 28.51 53.88 46.2 60.55 50.04l7.58 4.26 6.01 6.48c34.23 36.85 150.37 140.39 231.87 132.98 43.96-4 85.96-34.24 134.58-69.24 32.17-23.16 68.4-49.19 110.78-71.04-80.97-83.96-117.01-197.17-104.43-332.71 6.11-65.97 22.78-124.84 37.3-166.03 10.47-29.69 43.15-46.71 72.78-36.09 29.95 10.74 44.69 43.22 34.33 72.36-12.14 34.15-26.58 84.24-31.78 140.22-11.45 123.29 27.44 217.31 115.37 279.86 5.79-1.01 11.63-1.96 17.6-2.73 69.63-8.98 90.81-38.45 133.02-97.16 42.73-59.44 95.91-133.43 217.27-203.21 103.22-59.35 112.69-109.83 127.03-186.25 13.54-72.22 30.41-162.1 126.25-266.94 92.71-101.39 109.31-189.07 126.88-281.89 14.64-77.31 29.75-157.13 85.54-243.8-.2-14.16-.35-24.81-.54-38.98-47.3-67.91-100.47-108.94-158.58-122.14-27.68-6.28-54.11-5.55-77.59-1.54 43.79 91.64 45 192.95 3.34 301.27-64.01 166.42-185.97 285.69-352.7 344.92-64.33 22.86-123.67 32.57-166.59 36.58-34.77 3.26-64.74-24.08-64.74-59 1.48-28.16 23.44-50.85 51.54-53.37 100.69-9.02 329.97-57.68 426.91-309.74 31.05-80.71 30.55-151.25-1.51-215.63-54.65-109.73-187.31-172.72-252.68-198.09-21.1-8.19-32.4-31.1-26.32-52.88l6.96-24.53c7.04-24.85 33.89-38.29 58-29.05l.78.3c60.65 23.33 168.43 73.67 248.58 159.91 45.32-14.74 104.3-24.18 169.21-9.87 51.97 11.45 100.12 36.16 144.18 73.8 22.25 19 56.48 3.97 56.75-25.29l.01-.86c.71-76.91 1.6-172.64 67.57-304.58 95.76-191.51-1.08-274.52-11.79-282.87l-42.55-29.23 27.49-45.63c73.72-122.43 159.07-334.31 108.09-400.28zm82.33 265.57c-24.05 62.61-52.43 118.79-71.59 154.22 55.75 68.92 101.92 203.35 9.19 388.81-54.27 108.55-54.96 183.02-55.64 255.04-.75 81.38-1.53 165.53-75.96 273.78-49.67 72.25-62.73 141.21-76.55 214.2-18.82 99.4-40.15 212.07-154.54 337.18-74.09 81.04-85.98 144.39-98.56 211.46-16.43 87.57-33.41 178.13-181.82 263.46-100.17 57.6-143.54 117.94-181.81 171.17-45.25 62.96-92.05 128.06-210.38 143.33-82.01 10.58-142.17 53.89-200.34 95.77-56.88 40.94-115.7 83.29-190.43 90.08-139.94 12.73-284.81-127.03-319.03-162.38-80.5-48.8-200.42-175.11-122.78-336.16 12.54-26 23.94-48.36 33.99-68.08 51.26-100.59 55.45-108.8 12.58-179.73l-11.24-18.49c-63.64-104.4-141.57-232.26-54.56-370.21-53.92-80.05-157.54-278.82-29.69-482.7 103.55-165.13 86.25-295.38 76.65-336.93-79.01-65.86-188.24-221.81-121.83-422.3 44.34-133.85 173.57-237.5 288.82-306.68-78.02-24.32-152.28-74.62-195.19-168.23-92.44-201.69-59.35-501.35-.92-687.02-6.24-2.7-12.52-6.02-18.78-10.08-46.06-29.87-71.86-87.09-76.7-170.06-5.45-93.47 30.77-163.47 76.17-211.83-10.54-6.4-20.69-14.02-30.01-23.11-30.82-30.02-46.81-70.51-46.25-117.07.17-14.76-.24-29.22-.64-43.22-3.45-121.86 9.49-209.54 212.62-313.86 59.15-30.37 117.22-43.01 173.3-43 174.99 0 330.5 122.99 438.19 213.61 101.53-13.09 435.08-44.27 592.98 85.43 145.72 119.69 124.8 347.46 105.89 451.57 106.32 37.49 334.81 145.68 355.42 387.83 19.25 226.25 50.52 265.6 126.07 360.64 9.59 12.06 19.76 24.86 30.55 38.82 53.8 69.62 51.38 182.25-7.18 334.74" style="fill:#ffffff;fill-opacity:1;fill-rule:nonzero;stroke:none" transform="matrix(.13333 0 0 -.13333 0 1066.667)"/>
    <path d="m6188.22 4333.16-4.17 14.7c.02-.08.02-.17.05-.25l4.12-14.45M6184.05 4347.86l-11.26 39.71zM5781.45 3139.92l53.79-17.46c-2.42.78-4.73 1.73-6.99 2.76-2.48.49-4.96 1.12-7.44 1.93l-39.36 12.77M3090.76 3829.96l27.49 45.63-42.56 29.23c-10.7 8.35-107.54 91.36-11.78 282.87 65.97 131.94 66.86 227.67 67.57 304.58l.01.86c.27 29.26 34.5 44.29 56.75 25.29 44.06-37.64 92.21-62.35 144.18-73.8 64.91-14.31 123.89-4.87 169.21 9.87 80.15-86.24 187.93-136.58 248.58-159.91l.78-.3c24.11-9.24 50.96 4.2 58 29.05l6.96 24.53c6.08 21.78-5.22 44.69-26.32 52.88-65.37 25.37-198.03 88.36-252.68 198.09-32.06 64.38-32.56 134.92-1.52 215.63 96.95 252.06 326.23 300.72 426.92 309.74 28.1 2.52 50.06 25.21 51.54 53.37 0 34.92-29.97 62.26-64.74 59-42.92-4.01-102.26-13.72-166.59-36.58-166.73-59.23-288.69-178.5-352.7-344.92-41.66-108.32-40.45-209.63 3.34-301.27-23.48-4.01-49.91-4.74-77.59 1.54-58.12 13.2-111.28 54.23-158.58 122.14-.19 14.17-.34 24.82-.54 38.98 55.79 86.67 70.9 166.49 85.54 243.8 17.57 92.82 34.17 180.5 126.88 281.89 95.84 104.84 112.71 194.72 126.25 266.94 14.34 76.42 23.81 126.9 127.03 186.25 121.36 69.78 174.54 143.77 217.27 203.21 42.21 58.71 63.39 88.18 133.02 97.16 5.97.77 11.81 1.72 17.6 2.73 87.93-62.55 126.81-156.57 115.37-279.86-5.2-55.98-19.64-106.07-31.78-140.22-10.36-29.14 4.38-61.62 34.33-72.36 29.63-10.62 62.31 6.4 72.78 36.09 14.52 41.19 31.19 100.06 37.3 166.03 12.58 135.54-23.46 248.75-104.43 332.71 42.38 21.85 78.61 47.88 110.78 71.04 48.62 35 90.62 65.24 134.58 69.24 81.5 7.41 197.64-96.13 231.86-132.98l6.02-6.48 7.58-4.26c6.67-3.84 35.84-21.53 60.54-50.04-49.99-12.49-117.02-39.44-173.71-97.74-75.23-77.34-111.88-187.11-108.94-326.26 2.15-101.79-49.76-153.76-93.68-179.43-76.37-44.65-182.12-42.44-263.12 5.46-69.93 41.36-112.07 111.19-121.52 199.58-3.28 30.73-30.39 53.85-62.15 50.62-31.93-3.24-53.62-33.36-49.97-65.25 13.99-122.41 76.09-223.18 176.06-282.3 59.37-35.12 128.46-52.76 196.62-52.76 64.15 0 127.48 15.62 181.16 46.99 97.67 57.08 152.24 158.95 149.69 279.48-2.26 107.09 23.3 189.19 75.96 244.01 41.87 43.58 93.71 61.95 128.7 69.69-1.96-11.25-5.56-22.94-11.42-35.1-12-24.88-23.09-46.65-32.88-65.85-55.93-109.76-84-164.85-8.6-289.6l11.46-18.85c10.76-17.65 20.74-34.25 29.7-50 48.95-86.03 3.85-196.77-92.37-219.96-82.03-19.76-166.85-70.14-229.7-174.9l-5.87-9.79c-76.4-127.39-142.37-237.42-228.3-257.6-45.62-10.71-101.41 1.99-169.6 38.8-26.04 14.06-58.54 5.72-74.49-19.2-31.9 0-43.94-42.01-16.74-58.67 84.89-51.99 160.28-77.69 228.42-77.69 20.03 0 39.43 2.22 58.27 6.64 132.49 31.12 209.86 160.15 299.45 309.56l5.85 9.76c24.72 41.2 53.18 70.08 82.67 90.01 85.2 57.61 200.53 14.1 228.5-84.87 19.29-68.28 21.64-152.42-30.79-236.04-.97-1.54-1.82-3.05-2.77-4.59-137.81 17.74-253.94-8.56-345.51-78.62-111.52-85.33-156.48-213.8-174.1-290.33-7.7-33.49 16.26-65.96 50.5-68.84 27.29 0 54.59 21.73 60.99 48.27 14.58 60.38 49.9 159.1 131.97 221.54.58.44 1.16.88 1.75 1.32 77.85 58.26 188.7-5.63 178.93-102.38-10.5-103.95 13.26-171.39 15-176.13l6-16.36 14.16-10.14c6.31-4.62 159.11-119.13 96.71-307.49-1.58-4.79-3.39-9.53-5.31-14.26-40.62 61.65-107.33 117.42-209.7 125.15-34.63 2.63-69.5 9.72-103.2 16.61-117.39 23.88-260.89 53.17-359.31-154.04-48.13 28.57-119.81 58.33-203.78 52.46-101.73-7.13-194.43-63.41-275.52-167.29-31.81-40.74-78.73-87.53-121.83-79.46-.12.02-.24.04-.37.06-62.18 12.1-121.69 122.72-155.21 213.69-10.81 29.31-43.45 44.6-73.25 33.3-29.29-11.09-43.06-44.91-32.24-74.3 35.11-95.39 112.87-259.17 239.11-283.72.41-.08.84-.16 1.26-.24 12.45-2.33 24.87-3.13 37.24-2.73-11.53-57.45-13.75-124.54 9.74-191.05 36.39-103.05 123.9-179.32 260.12-226.7a713.439 713.439 0 0 1 54.58-16.59c36.18-9.42 71.38 19.21 69.54 56.55l-.06 1.28c-1.16 24.82-18.34 45.75-42.37 52.04-14.58 3.81-29.41 8.31-44.53 13.56-101.86 35.43-165.93 88.25-190.43 156.99-27.4 76.87-2.09 160.89 18.9 210.14.81 1.9 1.28 3.86 1.86 5.8 19.24 17.1 38.29 37.68 57.1 61.78 60.25 77.17 125.29 118.89 193.34 123.99 101.32 7.61 182.18-67.84 182.98-68.6l.08-.08c29.86-28.29 78.97-16.34 92.49 22.51 65.21 189.1 129.66 176.02 257.96 149.8 37.15-7.54 75.53-15.39 117.25-18.55 6.35-.48 12.45-1.26 18.31-2.32 90.48-16.37 116.2-135.44 42.22-190.04-95.45-70.45-205.68-120.97-261.9-141.46-122.1-38.5-208.61-105.44-257.05-199.07-44.48-85.95-46.17-175.46-39.38-236.58 4.18-37.7 39.68-62.93 75.81-55.75 24.95 11.34 40.29 37.54 36.99 65.29-5.36 45.04-5.3 113.2 27.5 175.94 34.18 65.41 98.11 113.24 189.95 142.24 23.66 5 229.85 43.51 302.03-113.95 58.34-127.29 55.65-317.37 27.5-474.57-25.13-140.32-151.33-240.79-293.58-231.44-1.07.07-2.14.14-3.22.22-77.26 5.52-128.9 44.2-157.87 118.27-10.82 27.66-16.45 55.5-19.38 77.86-3.99 30.51-32.28 52.62-63.94 48.55-31.33-4.02-52.85-34.09-48.72-65.4 15.84-120.34 86.32-278.14 281.85-292.1a693.41 693.41 0 0 1 49.36-1.78c96.11-.01 173.93 20.6 232.71 45.31 37.18 15.64 79-9.86 81.51-50.12l.09-1.44c4.62-79.17-38.38-126.78-73.08-152.03-24.49-17.83-37.07-47.73-31.33-77.48l.6-3.14c5.6-29.03 27.2-52.53 55.81-59.99 14.15-3.69 28.08-9.08 35.99-16.86 5.67-5.59 12.16-14.58 11.92-34.57-.2-17.03.24-32.64.67-47.76 2.46-86.87 3.69-130.48-151.22-210.04-18.51-9.5-37-16.56-55.45-21.43-239.48-63.11-380.05 263.69-171.46 397.19 1.54.98 3.08 1.95 4.65 2.93 50.8 31.56 24.23 110.09-35.3 104.33h-.01c-.64-.06-77.7-5.97-131.75 37.96-19.03 15.46-45.51 17.77-66.03 4.34l-2.9-1.9c-30.79-20.17-33.49-64.4-5.32-88.08 25-21.02 52.3-35.42 78.85-45.25-55.47-61.05-84.09-127.45-98.23-186.6l-42.85-14.14-25.5-3.95c-107.67-16.58-412.77-38.62-529.71 57.42-77.49 63.66-84.37 192.92-74.22 290.42 2.88 27.7 26.1 48.79 53.95 48.78h.45c144.31 0 237.25 52.16 286.78 91.44 24.78 19.64 23.95 57.59-1.22 76.72l-11.94 9.3c-17.58 13.69-42.15 13.76-59.77.12-42.01-32.52-135.02-81.83-294.56-58.21-26.92 7.13-301.32 85.18-319.86 303.02-3.91 45.86-8.46 85.27-13.82 119.82-1.14 7.36 5.24 13.66 12.6 12.5l.15-.02c81.64-12.83 163.56 19 220.05 49.63 44.08-148.45 163.44-344.74 409.03-370.59 22.2-2.33 43.48-3.44 63.83-3.44 203.95 0 316.57 110.94 365.89 206.01 17.5 33.75-1.68 75.18-39.59 82.56-25.12 4.9-50.09-8.64-62.07-31.26-32.15-60.67-116.56-162.31-316.22-141.38-281.12 29.59-325.13 343.6-326.87 356.96v.07c-5.7 43.85-57.23 64.51-91.65 36.76-30.68-24.57-127.54-85.82-205.17-73.54-33.96 5.4-61.61 24.76-84.53 59-21.34 40.82-48.07 75.84-81.86 118.35-9.29 11.69-19.15 24.09-29.59 37.61-50.98 65.97 34.36 277.85 108.09 400.28zm-197.6-469.45c10.79-13.96 20.96-26.76 30.55-38.82 75.55-95.04 106.82-134.39 126.07-360.64 20.61-242.15 249.1-350.34 355.42-387.83-18.91-104.11-39.83-331.88 105.89-451.57 157.9-129.7 491.45-98.52 592.98-85.43 107.69-90.62 263.2-213.61 438.19-213.61 56.08-.01 114.15 12.63 173.29 43 203.14 104.32 216.08 192 212.63 313.86-.4 14-.81 28.46-.64 43.22.56 46.56-15.43 87.05-46.25 117.07-9.32 9.09-19.47 16.71-30.01 23.11 45.4 48.36 81.62 118.36 76.17 211.83-4.84 82.97-30.64 140.19-76.7 170.06a127.12 127.12 0 0 1-18.79 10.08c58.44 185.67 91.53 485.33-.92 687.02-42.9 93.61-117.17 143.91-195.18 168.23 115.25 69.18 244.48 172.83 288.82 306.68 66.41 200.49-42.82 356.44-121.83 422.3-9.6 41.55-26.9 171.8 76.65 336.93 127.85 203.88 24.23 402.65-29.69 482.7 87.01 137.95 9.08 265.81-54.56 370.21l-11.24 18.49c-42.87 70.93-38.68 79.14 12.58 179.73 10.05 19.72 21.45 42.08 33.99 68.08 77.64 161.05-42.28 287.36-122.78 336.16-34.22 35.35-179.09 175.11-319.04 162.38-74.72-6.79-133.54-49.14-190.42-90.08-58.17-41.88-118.33-85.19-200.34-95.77-118.33-15.27-165.13-80.37-210.38-143.33-38.27-53.23-81.64-113.57-181.82-171.17-148.4-85.33-165.38-175.89-181.81-263.46-12.58-67.07-24.47-130.42-98.56-211.46-114.39-125.11-135.72-237.78-154.54-337.18-13.82-72.99-26.88-141.95-76.55-214.2-74.43-108.25-75.21-192.4-75.96-273.78-.68-72.02-1.37-146.49-55.64-255.04-92.73-185.46-46.56-319.89 9.19-388.81-19.16-35.43-47.54-91.61-71.59-154.22-58.56-152.49-60.98-265.12-7.18-334.74" style="fill:#ffffff;fill-opacity:1;fill-rule:nonzero;stroke:none" transform="matrix(.13333 0 0 -.13333 0 1066.667)"/>
    <path d="m3811.78 4333.16 4.17 14.7c-.02-.08-.02-.17-.05-.25l-4.12-14.45M3815.95 4347.86l11.26 39.71zM4218.55 3139.92l-53.79-17.46c2.42.78 4.73 1.73 6.99 2.76 2.48.49 4.96 1.12 7.44 1.93l39.36 12.77" style="fill:#ffffff;fill-opacity:1;fill-rule:nonzero;stroke:none" transform="matrix(.13333 0 0 -.13333 0 1066.667)"/>
</svg>
