<svg width="701" height="701" viewBox="0 0 701 701" fill="none" xmlns="http://www.w3.org/2000/svg">
<path d="M82.2255 601.089C69.6244 582.245 62.6531 561.751 60.4444 539.529C60.3585 538.664 60.1327 537.782 60.2233 536.935C61.3376 526.525 55.4318 521.657 47.3259 516.346C22.5567 500.116 8.42281 476.083 2.88813 446.954C-3.2051 414.885 3.1537 385.41 22.3978 359.077C25.0168 355.493 25.2901 352.836 23.1484 348.856C14.5625 332.899 9.14765 315.744 9.14589 297.545C9.14216 258.954 23.5003 227.152 54.7522 204.104C57.9733 201.728 59.0801 199.645 58.68 195.211C54.0279 143.663 83.3335 95.4419 129.244 79.3118C133.611 77.7773 138.018 76.2494 142.677 75.8872C146.876 75.5608 149.212 73.3647 151.081 69.4697C162.391 45.9099 178.64 26.9467 201.133 13.4484C235.353 -7.087 284.571 -2.89125 311.461 23.8701C327.417 39.7492 335.067 59.5853 335.084 82.1599C335.191 216.281 335.148 350.401 335.152 484.522C335.154 525.629 335.632 566.744 334.994 607.841C334.414 645.218 316.174 671.947 283.973 689.335C270.844 696.424 256.705 700 241.988 700.357C217.307 700.957 195.647 692.125 176.379 676.859C166.711 669.199 158.318 660.293 151.524 649.889C150.266 647.962 148.798 646.639 146.307 646.121C118.799 640.396 97.8131 624.993 82.2255 601.089ZM176.35 218.778C184.823 225.913 194.368 229.742 205.573 229.923C231.66 230.342 253.213 203.757 247.394 177.897C243.921 162.461 233.955 152.918 220.049 146.931C210.866 142.978 207.357 134.66 210.992 125.676C214.292 117.521 222.808 114.308 231.686 117.868C258.216 128.506 278.071 157.848 277.293 186.614C276.711 208.107 268.195 226.298 252.661 241.115C232.059 260.766 203.615 265.857 177.706 254.614C167.021 249.977 158.716 242.204 150.361 234.465C133.848 219.171 114.56 214.474 93.0711 219.358C58.0712 227.313 38.0929 261.227 38.6799 295.561C39.0023 314.417 44.6334 331.732 57.2534 346.372C63.2493 353.327 61.957 360.962 54.7247 366.887C50.9446 369.984 47.6657 373.484 44.9256 377.534C25.4539 406.312 24.8711 442.74 43.9001 471.828C51.8479 483.978 62.3966 493.402 76.3455 498.046C86.9493 501.576 90.1258 505.222 89.8249 516.419C89.3323 534.747 91.8089 552.495 98.9355 569.422C110.715 597.401 130.34 615.45 160.942 619.478C165.264 620.046 168.682 622.214 171.216 625.755C173.03 628.291 174.566 631.037 176.443 633.52C193.623 656.241 214.871 671.04 244.542 669.668C264.886 668.727 281.02 659.681 293.542 643.757C303.294 631.357 306.591 616.629 306.697 601.216C306.946 564.987 306.787 528.755 306.789 492.525C306.79 466.048 306.692 439.572 306.858 413.096C306.89 408.034 305.886 405.934 300.136 405.563C283.357 404.481 267.334 400.208 253.054 390.652C240.252 382.086 229.017 371.963 222.682 357.41C219.232 349.485 222.152 341.057 228.902 337.587C236.627 333.616 244.532 336 249.189 343.893C251.669 348.095 254.285 352.141 257.721 355.623C269.511 367.569 284.011 373.626 300.276 375.829C305.817 376.58 306.788 375.653 306.788 369.662C306.794 274.905 306.878 180.147 306.661 85.3907C306.63 71.6686 302.052 59.3662 292.863 48.686C276.534 29.7059 245.114 24.4685 221.808 36.0026C198.83 47.3738 184.12 66.362 174.641 89.7515C171.242 98.1384 165.821 101.735 157.319 102.793C114.782 108.084 88.3576 141.653 86.78 183.953C86.6143 188.395 88.281 189.253 92.387 188.338C105.543 185.406 118.587 186.731 131.565 189.926C149.484 194.337 163.187 205.414 176.35 218.778Z" fill="white"/>
<path d="M509.823 19.9804C527.679 33.632 542.118 49.6654 550.799 70.4775C551.959 73.2565 553.58 74.7611 556.821 75.2112C604.084 81.7754 634.746 119.514 641.921 160.062C644.14 172.603 645.223 185.225 642.636 197.856C642.096 200.492 643.26 201.689 645.109 202.927C671.491 220.592 686.012 246.045 691.298 277.069C695.572 302.15 690.696 325.912 678.385 347.972C675.85 352.515 675.661 355.433 678.818 359.878C702.893 393.777 706.633 430.689 692.165 469.24C683.791 491.551 668.331 508.52 647.918 520.568C644.778 522.421 643.347 524.429 643.068 528.268C640.832 559.039 631.817 587.287 611.633 611.029C596.432 628.907 578.1 641.831 554.722 646.095C551.472 646.688 550.245 648.963 548.714 651.234C533.392 673.962 512.882 689.749 486.558 696.573C450.304 705.972 417.712 698.905 391.148 670.98C376.859 655.959 369.201 637.473 367.553 616.626C365.314 588.291 366.686 559.897 366.654 531.534C366.486 382.605 366.562 233.676 366.535 84.7468C366.527 41.4562 396.471 7.27659 438.973 1.64032C464.962 -1.80622 488.216 4.87081 509.823 19.9804ZM470.903 176.182C465.317 180.645 459.328 181.409 453.246 177.545C447.871 174.13 445.168 169.004 446 162.477C447.513 150.622 451.007 139.334 456.856 128.962C470.428 104.896 490.036 87.9662 515.943 78.8549C520.04 77.414 520.658 75.7764 518.304 72.1564C501.518 46.3396 479.603 29.6528 447.544 30.4851C418.505 31.239 396.143 53.9945 395.934 83.3243C395.814 100.218 395.858 117.114 395.86 134.009C395.872 217.614 395.935 301.22 395.816 384.826C395.809 389.883 396.944 391.552 402.29 391.824C421.553 392.803 439.302 398.878 454.999 410.426C462.823 416.182 470.029 422.628 473.791 432.085C476.765 439.563 474.251 447.22 467.574 450.923C460.95 454.597 453.904 452.831 449.016 446.206C437.591 430.724 421.551 424.261 403.292 422.515C395.986 421.817 395.915 422.233 395.914 429.743C395.913 488.442 395.93 547.14 395.922 605.838C395.922 609.848 396.224 613.791 396.876 617.769C402.774 653.737 432.737 674.831 470.409 668.996C494.147 665.319 512.283 652.107 525.599 632.253C530.63 624.751 536.197 620.266 545.496 618.688C574.74 613.728 593.389 594.821 604.336 568.019C617.632 535.47 618.17 501.543 611.043 467.568C605.948 443.273 595.724 422.425 569.385 414.702C563.123 412.866 559.966 404.505 561.684 398.236C563.627 391.143 569.588 386.523 576.564 387.107C592.01 388.402 603.984 396.66 614.199 407.635C629.836 424.435 637.251 445.247 641.127 467.564C642.263 474.101 642.971 480.715 643.902 487.491C647.613 486.314 649.668 483.897 651.624 481.544C669.009 460.633 673.614 436.397 668.836 410.089C665.809 393.42 658.344 378.983 645.908 367.253C638.954 360.693 638.872 352.818 644.768 345.348C647.019 342.496 649.59 339.795 651.299 336.628C667.561 306.485 666.581 276.591 648.756 247.593C641.668 236.062 631.999 227.489 617.379 226.64C611.056 226.273 606.499 222.407 604.946 215.866C603.408 209.385 605.656 204.186 610.997 200.46C613.68 198.589 614.695 196.113 614.865 192.957C615.323 184.425 615.243 175.954 613.854 167.473C607.777 130.363 577.719 102.643 541.007 104.47C510.295 105.998 480.197 132.312 475.396 165.652C474.852 169.429 473.855 172.731 470.903 176.182Z" fill="white"/>
<path d="M183.029 587.853C163.737 576.334 152.072 559.559 149.356 537.566C145.95 509.994 155.913 487.305 177.4 470.111C192.57 457.971 209.918 451.737 229.386 451.938C237.485 452.022 244.532 457.829 245.393 465.322C246.27 472.96 240.866 480.075 232.423 481.34C224.645 482.506 216.673 482.375 209.247 485.563C194.441 491.919 183.322 501.678 179.272 518.232C173.494 541.844 190.68 565.199 214.604 566.15C220.459 566.383 226.228 565.975 231.97 564.699C240.359 562.834 247.539 567.408 250.08 576.028C252.244 583.371 248.594 591.591 241.137 594.264C228.307 598.863 215.109 597.878 202.049 595.293C195.476 593.992 189.247 591.373 183.029 587.853Z" fill="white"/>
<path d="M151.078 374.766C156.202 352.329 141.098 331.739 117.471 328.43C106.733 326.926 100.952 318.379 103.916 308.387C105.77 302.136 110.107 298.826 116.919 298.597C132.489 298.073 145.796 304.122 157.482 313.888C173.144 326.976 182.084 344.194 182.241 364.666C182.415 387.312 172.415 405.962 155.421 420.533C142.428 431.674 127.397 438.535 110.522 441.142C101.901 442.473 94.6069 437.067 93.5265 428.466C92.3822 419.356 98.6368 411.915 108.198 410.429C122.188 408.256 134.5 402.739 143.503 391.081C147.166 386.337 149.556 380.999 151.078 374.766Z" fill="white"/>
<path d="M496.079 359.247C474.183 350.978 459.339 336.218 453.249 313.557C448.734 296.759 451.008 280.347 459.362 265.129C470.74 244.401 488.598 232.151 511.095 227.137C517.42 225.728 524.256 224.467 530.934 226.3C538.895 228.487 544.125 235.514 543.174 242.632C542.09 250.755 536.145 256.298 527.495 256.198C513.492 256.037 501.608 260.81 491.814 270.817C471.59 291.48 479.726 322.866 507.375 330.995C511.491 332.205 515.69 332.974 520.021 333.156C528.595 333.516 535.161 340.452 534.989 348.676C534.818 356.885 528.418 362.696 519.696 362.965C511.704 363.211 503.974 362.117 496.079 359.247Z" fill="white"/>
<path d="M483.622 587.655C478.894 592.215 473.91 594.172 467.907 591.458C461.825 588.708 458.639 583.809 458.272 577.201C456.405 543.522 480.756 510.324 512.801 502.718C519.912 501.03 526.535 503.103 529.916 508.075C533.923 513.968 533.929 519.787 530.092 525.578C527.605 529.332 523.751 530.819 519.832 532.092C502.583 537.697 492.542 549.916 488.078 567.337C486.948 571.743 488.25 576.349 486.843 580.792C486.098 583.144 485.399 585.41 483.622 587.655Z" fill="white"/>
</svg>
