<svg width="2719" height="2719" viewBox="0 0 2719 2719" fill="none" xmlns="http://www.w3.org/2000/svg">
<path fill-rule="evenodd" clip-rule="evenodd" d="M340 0C152.223 0 0 152.223 0 340V2379C0 2566.78 152.223 2719 340 2719H2379C2566.78 2719 2719 2566.78 2719 2379V340C2719 152.223 2566.78 0 2379 0H340ZM471 2046.26V2247.09H1160.03V2036.99C1036.44 2030.8 1033.36 2009.17 1033.36 1894.85V1385.01C1119.86 1385.01 1154.91 1400.02 1231.11 1493.14C1357.78 1644.55 1425.76 1768.14 1512.26 1965.9L1141.5 2478.82L1323.8 2614.79L1660.59 2169.86C1672.24 2178.87 1677.59 2183.66 1683.9 2189.31C1691.07 2195.72 1699.48 2203.24 1719.74 2219.29C1747.68 2242.73 1753.28 2247.11 1796.55 2247.11H2247.65V2043.16C2105.51 2024.64 2059.17 1987.55 1944.86 1795.97L2176.59 1477.73L1994.27 1338.68L1799.62 1592.06C1703.84 1471.56 1672.93 1437.55 1558.62 1344.86C1870.68 1236.71 2025.18 1106.94 2025.18 841.202C2025.18 686.706 1947.94 516.763 1796.54 417.882C1663.67 331.36 1521.54 319 1224.92 319H492.634V519.837C597.688 541.47 610.049 544.57 610.049 624.905L603.862 1965.91C603.711 1966.82 603.565 1967.71 603.422 1968.58C597.76 2003.02 597.59 2004.06 471 2046.26ZM1033.72 557.293C1382.87 557.293 1555.91 612.908 1555.91 850.838C1555.91 1036.23 1423.05 1144.38 1175.85 1144.37C1141.86 1144.37 1089.35 1144.37 1033.72 1141.28V557.293Z" fill="white"/>
</svg>
